<svg xmlns="http://www.w3.org/2000/svg" width="400" height="400" enable-background="new 0 0 400 400" viewBox="0 0 400 400"><path fill="#D3D3D3" d="M319.082 261.276l-75.322-34.766c-2.843-1.311-4.083-4.682-2.771-7.52 1.311-2.84 4.67-4.084 7.519-2.773l75.322 34.764c2.846 1.312 4.084 4.684 2.773 7.521-.958 2.074-3.011 3.291-5.151 3.291C320.659 261.794 319.853 261.628 319.082 261.276zM231.898 167.944c-2.213-2.213-2.213-5.795 0-8.008l49.903-49.904c2.212-2.215 5.798-2.215 8.011 0 2.213 2.211 2.213 5.799 0 8.012l-49.904 49.904c-1.104 1.107-2.555 1.658-4.005 1.658C234.455 169.606 233.005 169.056 231.898 167.944zM159.779 167.948l-71.88-71.877c-2.213-2.213-2.213-5.797 0-8.01s5.799-2.213 8.012 0l71.881 71.875c2.213 2.213 2.213 5.799 0 8.012-1.107 1.107-2.558 1.658-4.007 1.658S160.886 169.056 159.779 167.948zM58.884 340.962c-2.214-2.213-2.214-5.797 0-8.012l100.9-100.902c2.214-2.213 5.8-2.213 8.013 0 2.214 2.213 2.214 5.799 0 8.012l-100.9 100.902c-1.106 1.107-2.557 1.658-4.007 1.658S59.991 342.069 58.884 340.962zM190.057 307.632c-3.114-.283-5.411-3.047-5.129-6.16l4.659-51.207c.286-3.111 2.987-5.4 6.157-5.131 3.115.281 5.411 3.043 5.129 6.158l-4.658 51.211c-.271 2.938-2.738 5.15-5.639 5.15C190.405 307.653 190.233 307.647 190.057 307.632z"/><circle cx="199.844" cy="200.001" r="56.659" fill="#FFBE55"/><circle cx="347.391" cy="267.913" r="33.917" fill="#2A94F4"/><circle cx="63.941" cy="63.94" r="45.249" fill="#2A94F4"/><circle cx="302.063" cy="98.093" r="28.251" fill="#0B4870"/><circle cx="47.099" cy="353.056" r="28.252" fill="#FFBE55"/><circle cx="188.59" cy="324.728" r="28.251" fill="#0B4870"/></svg>