<svg xmlns="http://www.w3.org/2000/svg" width="400" height="400" enable-background="new 0 0 400 400" viewBox="0 0 400 400"><path fill="#2A94F4" d="M244.991,256.209c-2.108,2.107-4.859,3.161-7.61,3.148c-2.755,0.013-5.506-1.041-7.612-3.146
				l-33.622-33.621c-4.199-4.199-4.199-11.023,0-15.224c2.106-2.107,4.859-3.161,7.612-3.149c2.753-0.01,5.505,1.042,7.612,3.149
				l33.62,33.62C249.19,245.186,249.189,252.011,244.991,256.209z"/><path fill="#0B4870" d="M347.812,358.521c-4.915,4.915-11.333,7.37-17.749,7.343c-6.422,0.027-12.84-2.428-17.748-7.338
				l-78.391-78.391c-9.794-9.793-9.793-25.705,0.001-35.499c4.911-4.909,11.329-7.366,17.747-7.337
				c6.422-0.027,12.837,2.428,17.748,7.339l78.392,78.391C357.604,332.819,357.599,348.734,347.812,358.521z"/><circle cx="152.643" cy="141.933" r="107.797" fill="#D3D3D3"/><circle cx="152.643" cy="141.932" r="79.664" fill="#F7F7F7"/><circle cx="152.643" cy="141.932" r="74.334" fill="#CCE9FF"/></svg>