<svg xmlns="http://www.w3.org/2000/svg" width="400" height="400" enable-background="new 0 0 400 400" viewBox="0 0 400 400"><path fill="#CCE9FF" d="M218.642,117.319c0.082-0.083,0.165-0.165,0.248-0.248c21.131-20.997,55.284-20.888,76.28,0.244
				c20.997,21.133,20.888,55.283-0.244,76.281l-167.82,167.812c-21.063,21.062-55.214,21.062-76.277,0
				c-21.063-21.064-21.063-55.214,0-76.277L218.642,117.319z"/><path fill="#CCE9FF" d="M338.295,96.827l-33.685,33.686c-5.109-9.788-13.096-17.775-22.884-22.884l33.685-33.686L338.295,96.827z
				"/><path fill="#D3D3D3" d="M349.081,40.273c6.319-6.319,16.564-6.319,22.884,0c6.319,6.319,6.319,16.565,0,22.884l-33.669,33.67
					l-22.884-22.884L349.081,40.273z"/><path fill="#2A94F4" d="M83.737,317.761c-2.122,2.123-2.122,5.565,0.001,7.688l22.985,22.984l0.007,0.009
					c0.766,0.766,1.743,1.286,2.806,1.492c0.342,0.065,0.689,0.099,1.039,0.099c1.439-0.004,2.82-0.576,3.843-1.591L294.546,168.31
					l0,0c2.123-2.122,2.123-5.565,0-7.687l-0.007-0.007l-22.977-22.985c-2.123-2.123-5.564-2.123-7.687,0
					c-2.123,2.122-2.123,5.564,0,7.688l19.142,19.149L260.684,186.8l-8.464-8.47c-2.123-2.123-5.565-2.123-7.688,0
					c-2.123,2.123-2.123,5.565,0,7.688l8.464,8.473l-22.335,22.331l-19.147-19.148c-2.123-2.122-5.565-2.122-7.688,0
					c-2.123,2.124-2.123,5.564,0,7.688l19.148,19.148l-22.334,22.334l-8.472-8.465c-2.123-2.122-5.564-2.122-7.688,0
					c-2.123,2.124-2.123,5.564,0,7.689l8.469,8.463l-22.335,22.337l-19.141-19.146c-2.124-2.122-5.564-2.122-7.688,0
					c-2.123,2.122-2.123,5.564,0,7.687l19.141,19.146l-22.331,22.331l-8.464-8.468c-2.123-2.122-5.564-2.122-7.688,0
					c-2.122,2.122-2.122,5.564,0,7.687l8.464,8.473l-22.333,22.334l-19.149-19.149h0C89.302,315.639,85.86,315.639,83.737,317.761
					L83.737,317.761z"/></svg>