<svg xmlns="http://www.w3.org/2000/svg" width="400" height="400" enable-background="new 0 0 400 400" viewBox="0 0 400 400"><path fill="#FFBE55" d="M43.488,109.623C66.453,69.856,143.858,91.334,200,116.642c14.246,6.38,27.009,12.97,37.214,18.926
				c35.299,20.415,65.71,43.806,88.462,68.048l-15.736,14.459c-20.839-22.328-50.396-45.083-83.357-64.219
				c-8.933-5.106-17.865-9.783-26.582-14.036c-68.262-33.387-126.954-38.704-138.224-19.565
				c-19.352,33.813,72.938,103.35,111.643,125.891c8.93,5.104,17.862,9.783,26.581,14.036
				c68.262,33.385,127.165,38.701,138.224,19.562c3.614-6.592,2.127-17.012-4.68-29.771l18.926-9.996
				c12.973,24.881,9.356,41.257,4.04,50.4c-20.412,35.301-89.737,23.818-156.51-6.805c-12.548-5.741-25.095-12.12-37.214-19.137
				C112.174,235.3,14.566,159.81,43.488,109.623z"/><path fill="#FFBE55" d="M345.664,199.335h0.022c15.221,8.805,20.453,28.356,11.659,43.578
				c-8.835,15.301-28.331,20.465-43.579,11.673c-15.248-8.819-20.479-28.292-11.671-43.572
				C310.884,195.818,330.419,190.542,345.664,199.335z"/><path fill="#2A94F4" d="M160.66,95.587c-8.933,29.345-13.823,66.349-13.823,104.412c0,91.227,28.068,160.198,53.163,160.198
				c25.092,0,53.163-68.971,53.163-160.198S225.092,39.802,200,39.802c-7.442,0-15.948,6.593-23.604,18.712l-17.862-11.269
				C173.419,23.428,189.367,18.537,200,18.537c48.273,0,74.429,93.849,74.429,181.462c0,87.614-26.155,181.463-74.429,181.463
				c-48.272,0-74.428-93.849-74.428-181.463c0-40.617,5.103-78.895,14.886-110.579L160.66,95.587z"/><path fill="#2A94F4" d="M157.47,39.802c17.589,0,31.897,15.019,31.897,32.606c0,17.588-14.309,31.899-31.897,31.899
					c-17.591,0-31.897-14.311-31.897-31.899C125.572,54.821,139.879,39.802,157.47,39.802z"/><path fill="#0E538C" d="M162.786,135.565c10.206-5.953,23.179-12.546,37.214-18.925c56.354-25.305,133.758-46.57,156.513-7.017
				c28.918,49.97-68.475,125.465-119.299,154.81c-12.548,7.229-24.881,13.608-37.214,19.352
				c-22.755,10.419-45.083,18.289-65.922,23.179l-4.893-20.84c21.905-4.89,46.36-14.035,70.814-25.941
				c8.93-4.253,17.862-8.933,26.582-14.036c41.467-24.031,130.354-93.353,111.642-125.891
				c-11.271-19.139-69.962-13.822-138.224,19.563c-8.719,4.252-17.651,8.931-26.581,14.035
				c-41.467,24.031-130.357,93.354-111.643,125.891c3.827,6.593,13.823,10.419,28.068,11.059l-0.85,21.265
				c-27.858-1.276-40.19-12.548-45.507-21.691C14.566,240.403,111.963,164.912,162.786,135.565z"/><path fill="#0E538C" d="M138.396,284.665c8.785,15.254,3.541,34.797-11.68,43.591c-15.231,8.783-34.741,3.617-43.571-11.693
				c-8.783-15.191-3.644-34.711,11.674-43.558C110.05,264.219,129.584,269.443,138.396,284.665z"/><path fill="#FFBE55" d="M168.103,200c0-17.65,14.246-31.897,31.897-31.897c17.649,0,31.897,14.247,31.897,31.897
				c0,17.652-14.248,31.899-31.897,31.899C182.349,231.898,168.103,217.652,168.103,200z"/></svg>