<svg xmlns="http://www.w3.org/2000/svg" width="400" height="400" enable-background="new 0 0 400 400" viewBox="0 0 400 400"><path fill="#E8E8E8" d="M230.242,82.549c-0.104,0.469-0.222,0.938-0.352,1.409l-0.169-1.214
			C229.89,82.679,230.073,82.613,230.242,82.549z"/><path fill="#E8E8E8" d="M230.242,82.549c-0.104,0.469-0.222,0.938-0.352,1.409l-0.169-1.214
			C229.89,82.679,230.073,82.613,230.242,82.549z"/><path fill="#FCD2B1" d="M222.102,264.122c-7.378,4.43-15.493,6.644-24.348,6.644h-3.684c-8.855,0-16.969-2.214-24.346-6.644
			l-23.606-15.489h-1.477v76.523l51.643,29.507l51.64-29.507v-76.523h-1.475L222.102,264.122z"/><path fill="#FFE3CA" d="M277.43,152.729c0-45.004-36.148-81.149-81.151-81.149c-45,0-81.147,36.146-81.147,81.149h-7.376v14.753
			c0,8.116,6.64,14.757,14.752,14.757l0,0v27.296c0,15.49,8.115,29.508,20.657,37.621l27.296,16.966
			c7.376,4.43,15.491,6.644,24.343,6.644h3.689c8.852,0,16.968-2.214,24.347-6.644l27.294-16.966
			c13.278-8.113,20.658-22.131,20.658-37.621v-27.296l0,0c8.112,0,14.752-6.641,14.752-14.757v-14.753H277.43z"/><path fill="#FCD2B1" d="M138.115,280.76l25.838-3.532h69.784l20.701,3.595c0,0,9.567,51.897-45.924,56.104
			C153.024,341.131,135.817,306.148,138.115,280.76z"/><path fill="#F7F7F7" d="M219.024,374.648c-15.835,0.339-31.88,0.313-47.677-0.053l5.805-56.441
			c5.987,1.499,12.431,2.309,19.136,2.309c5.909,0,11.622-0.626,16.996-1.813L219.024,374.648z"/><path fill="#F7F7F7" d="M177.153 318.154l-5.805 56.441c-.378-.013-.743-.013-1.109-.025-50.964-1.239-99.228-6.118-128.877-14.622l4.421-33.212c1.487-11.061 9.588-20.648 20.663-24.34l17.479-5.284 23.832-7.187.052-.025 30.302-9.146C139.232 298.118 155.212 312.701 177.153 318.154zM351.202 359.948c-30.081 8.634-79.335 13.525-131.107 14.675-.366.013-.718.013-1.07.025l-5.74-55.999c22.997-5.009 39.955-19.944 41.155-37.828l22.944 7.147 5.27 1.644 23.57 7.331 19.893 6.196c11.062 3.691 19.189 12.548 20.662 24.341L351.202 359.948z"/><linearGradient id="a" x1="229.721" x2="230.242" y1="83.254" y2="83.254" gradientUnits="userSpaceOnUse"><stop offset=".348" stop-color="#4d4d4d"/><stop offset=".921" stop-color="#333"/></linearGradient><path fill="url(#a)" d="M230.242,82.549c-0.104,0.469-0.222,0.938-0.352,1.409l-0.169-1.214
			C229.89,82.679,230.073,82.613,230.242,82.549z"/><linearGradient id="b" x1="229.721" x2="230.242" y1="83.254" y2="83.254" gradientUnits="userSpaceOnUse"><stop offset=".348" stop-color="#4d4d4d"/><stop offset=".921" stop-color="#333"/></linearGradient><path fill="url(#b)" d="M230.242,82.549c-0.104,0.469-0.222,0.938-0.352,1.409l-0.169-1.214
			C229.89,82.679,230.073,82.613,230.242,82.549z"/><path fill="#F2F2F2" d="M306.512 296.773l-15.174-4.584L255 327.338l-34.906 47.285-.939 1.265-.13-1.239-5.74-55.999-.052-.495c0 0 35.101-26.317 35.101-39.153l9.875 1.754 19.175 7.214 5.075 1.904.195-.261.027-.038L306.512 296.773zM177.153 318.154l-5.805 56.441-.13 1.292-.979-1.317-34.463-46.686L107.809 289.9l-.052.025.052-.025 24.354-9.146 12.483-.887C144.646 292.704 177.153 318.154 177.153 318.154z"/><path fill="#0B4870" d="M278.51,174.43l-3.65-9.54l-20.69,7.91c-0.64-1.09-1.36-2.13-2.17-3.12
					c-5.16-6.37-13.56-10.52-23.03-10.52c-13.3,0-24.5,8.2-27.6,19.24v-0.29h-7.92c-3.21-10.891-14.34-18.95-27.53-18.95
					c-8.46,0-16.07,3.32-21.28,8.57c-1.72,1.739-3.18,3.68-4.33,5.789l-19.13-4.649l-2.42,9.93l18.74,4.55
					c-0.03,0.42-0.04,0.83-0.04,1.25c0,6.471,2.71,12.381,7.18,16.86c5.21,5.26,12.82,8.58,21.28,8.58
					c13.31,0,24.51-8.2,27.61-19.24h7.84c3.1,11.04,14.3,19.24,27.6,19.24c9.46,0,17.86-4.15,23.03-10.51
					c3.42-4.19,5.43-9.351,5.43-14.931c0-0.689-0.03-1.38-0.1-2.06L278.51,174.43z M165.92,198.77c-8.86,0-16.17-5.56-17.09-12.659
					c-0.07-0.5-0.1-1-0.1-1.511c0-3.069,1.2-5.93,3.23-8.25c3.12-3.58,8.21-5.92,13.96-5.92c9.48,0,17.19,6.36,17.19,14.17
					C183.11,192.41,175.4,198.77,165.92,198.77z M245.93,186.9c-1.34,6.72-8.43,11.869-16.96,11.869
					c-9.48,0-17.19-6.359-17.19-14.17c0-7.81,7.71-14.17,17.19-14.17c6.04,0,11.37,2.59,14.43,6.49c1.75,2.21,2.76,4.85,2.76,7.68
					C246.16,185.38,246.08,186.15,245.93,186.9z"/><linearGradient id="c" x1="148.73" x2="183.11" y1="184.6" y2="184.6" gradientUnits="userSpaceOnUse"><stop offset=".348" stop-color="#4d4d4d"/><stop offset=".921" stop-color="#333"/></linearGradient><path fill="url(#c)" d="M183.11,184.6c0,7.811-7.71,14.17-17.19,14.17c-8.86,0-16.17-5.56-17.09-12.659
				c-0.07-0.5-0.1-1-0.1-1.511c0-3.069,1.2-5.93,3.23-8.25c3.12-3.58,8.21-5.92,13.96-5.92C175.4,170.43,183.11,176.79,183.11,184.6
				z"/><path fill="#CCE9FF" d="M245.93,186.9c-1.34,6.72-8.43,11.869-16.96,11.869c-9.48,0-17.19-6.359-17.19-14.17
				c0-7.81,7.71-14.17,17.19-14.17c6.04,0,11.37,2.59,14.43,6.49c1.75,2.21,2.76,4.85,2.76,7.68
				C246.16,185.38,246.08,186.15,245.93,186.9z M183.11,184.6c0,7.811-7.71,14.17-17.19,14.17c-8.86,0-16.17-5.56-17.09-12.659
				c-0.07-0.5-0.1-1-0.1-1.511c0-3.069,1.2-5.93,3.23-8.25c3.12-3.58,8.21-5.92,13.96-5.92C175.4,170.43,183.11,176.79,183.11,184.6
				z"/><path fill="#CCE9FF" d="M246.16,184.6c0,0.78-0.08,1.551-0.23,2.301c-1.34,6.72-8.43,11.869-16.96,11.869
				c-9.48,0-17.19-6.359-17.19-14.17c0-7.81,7.71-14.17,17.19-14.17c6.04,0,11.37,2.59,14.43,6.49
				C245.15,179.13,246.16,181.77,246.16,184.6z"/><linearGradient id="d" x1="155.785" x2="155.785" y1="123.87" y2="124.19" gradientUnits="userSpaceOnUse"><stop offset=".37" stop-color="#ccc"/><stop offset="1" stop-color="gray"/></linearGradient><path fill="url(#d)" d="M155.76,124.19c0.01-0.051,0.03-0.181,0.05-0.32c-0.01,0-0.01,0-0.02,0
			C155.77,124.07,155.76,124.16,155.76,124.19z"/><path fill="#D3D3D3" d="M302.78,124.01c0-0.38-0.01-0.75-0.02-1.13c-0.1-4.899-0.93-9.61-2.35-14.04
			c-0.01-0.01-0.01-0.03-0.02-0.05c-4.29-11.24-13.9-19.88-25.81-22.78c0.71-2.71,1.11-5.56,1.17-8.479
			c0.32-15.29-8.65-28.61-21.74-34.57c-4.45-2.03-9.39-3.2-14.58-3.31c-1.26-0.03-2.5,0.01-3.72,0.109
			c-0.61,0.04-1.22,0.101-1.82,0.181c-0.91-1.421-1.75-2.79-2.57-4.091c-8.86-6.92-20.9-11.22-34.18-11.319
			c-0.16,0.04-0.32,0.09-0.48,0.14c-0.16-0.05-0.32-0.1-0.49-0.14c-13.28,0.1-25.32,4.39-34.17,11.31
			c-0.83,1.3-1.67,2.68-2.58,4.101c-0.6-0.08-1.21-0.141-1.82-0.181c-1.23-0.1-2.46-0.14-3.72-0.109
			c-5.2,0.109-10.13,1.279-14.58,3.31c-13.09,5.96-22.06,19.28-21.74,34.57c0.06,2.92,0.46,5.77,1.16,8.479
			c-11.9,2.9-21.51,11.54-25.8,22.78c-0.02,0.01-0.02,0.03-0.02,0.05c-1.43,4.43-2.25,9.141-2.35,14.04
			c-0.01,0.38-0.02,0.75-0.02,1.13c0.76,14.601,9.92,26.88,22.67,32.25c-0.71,6.9,1.62,13.23,4.2,17.91
			c4.54-0.67,8.72-2.22,12.55-4.45h0.01c0.32-0.76,0.51-1.35,0.52-1.68c0.08-3.021,3.12-3.59,4.02-9.55
			c15.53-2.92,9.83-17.061,12.06-32.71c1.93,0.489,5.47-2.41,9.23-1.91c0.02-0.12,0.03-0.2,0.05-0.25c0,0.06-0.01,0.16-0.03,0.25
			c7.42,0.36,30.82,5.14,40.84,6.08l40.87-6.08c0.12,1.14,0.26,2.28,0.45,3.42c2.58,17.11,11.49,34.29,25.36,42.43h0.02
			c3.81,2.23,8,3.78,12.54,4.45c2.28-4.11,4.35-9.479,4.35-15.38c0-0.84-0.04-1.68-0.14-2.53
			C292.85,150.89,302.02,138.61,302.78,124.01z M229.95,83.41c-0.12,0.46-0.24,0.93-0.38,1.399l-0.14-1.22
			C229.6,83.53,229.78,83.47,229.95,83.41z M163.88,83.59l-0.14,1.22c-0.14-0.47-0.27-0.939-0.39-1.399
			C163.53,83.47,163.71,83.53,163.88,83.59z"/><linearGradient id="e" x1="163.615" x2="163.615" y1="83.41" y2="84.81" gradientUnits="userSpaceOnUse"><stop offset=".37" stop-color="#ccc"/><stop offset="1" stop-color="gray"/></linearGradient><path fill="url(#e)" d="M163.35,83.41c0.18,0.06,0.36,0.12,0.53,0.18l-0.14,1.22C163.6,84.34,163.47,83.87,163.35,83.41z"/><linearGradient id="f" x1="196.655" x2="196.655" y1="24.53" y2="24.67" gradientUnits="userSpaceOnUse"><stop offset=".37" stop-color="#ccc"/><stop offset="1" stop-color="gray"/></linearGradient><path fill="url(#f)" d="M197.14,24.53c-0.16,0.04-0.32,0.09-0.48,0.14c-0.16-0.05-0.32-0.1-0.49-0.14H197.14z"/><linearGradient id="g" x1="229.69" x2="229.69" y1="83.41" y2="84.81" gradientUnits="userSpaceOnUse"><stop offset=".37" stop-color="#ccc"/><stop offset="1" stop-color="gray"/></linearGradient><path fill="url(#g)" d="M229.43,83.59c0.17-0.06,0.35-0.12,0.52-0.18c-0.12,0.46-0.24,0.93-0.38,1.399L229.43,83.59z"/></svg>