<svg xmlns="http://www.w3.org/2000/svg" width="400" height="400" enable-background="new 0 0 400 400" viewBox="0 0 400 400"><path fill="#D3D3D3" d="M216.84 277.546v3.665c0 4.323-3.539 7.86-7.861 7.86h-36.383c-.725-1.519-1.117-3.217-1.117-5.014v-2.635h-56.375v7.649H77.572c-4.324 0-7.871-3.538-7.871-7.86v-3.665c0-4.324 3.547-7.862 7.871-7.862h131.406C213.301 269.684 216.84 273.222 216.84 277.546zM320.307 253.018c-4.76 11.25-11.018 21.713-18.568 31.231.436.373.848.754 1.262 1.158-4.014-2.464-8.74-3.877-13.799-3.877-10.25 0-19.143 5.821-23.539 14.331H221.99c1.18 0 2.369-.16 3.506-.511 15.309-4.685 29.309-13.066 40.953-24.709 18.727-18.727 29.031-43.585 29.031-70.068 0-26.472-10.305-51.341-29.031-70.069-6.449-6.449-13.631-11.898-21.354-16.275-2.912-9.315-10.059-16.764-19.195-20.078l8.371-13.023c3.07-4.759 9.125-6.649 14.363-4.44l.072.042c16.053 6.798 30.414 16.476 42.768 28.83 12.355 12.312 22.033 26.717 28.832 42.726 7.041 16.604 10.58 34.227 10.58 52.359C330.887 218.79 327.307 236.414 320.307 253.018zM230.457 61.582l-5.004 7.787-14.902 23.243c-15.115 2.241-26.695 15.265-26.695 30.998 0 3.007.424 5.917 1.221 8.668l-29.373 45.827c-2.242 3.505-6.055 5.438-9.953 5.438-2.199 0-4.408-.594-6.373-1.858l-8.021-5.151-26.875-17.189-8.139-5.236c-5.514-3.495-7.084-10.814-3.59-16.285l74.797-116.607c2.242-3.506 6.055-5.429 9.955-5.429 2.197 0 4.396.595 6.371 1.848l43.004 27.663C232.379 48.792 233.953 56.111 230.457 61.582zM115.104 334.646c-25.729 1.886-45.99 23.366-45.99 49.568h206.229c6.531 0 11.803-5.27 11.803-11.802v-18.923-18.962H118.803C117.541 334.527 116.324 334.564 115.104 334.646z"/><path fill="#0B4870" d="M303 285.406c-4.014-2.464-8.74-3.877-13.799-3.877-14.637 0-26.502 11.866-26.502 26.494 0 13.809 10.568 25.156 24.059 26.388.809.073 1.617.116 2.443.116 14.639 0 26.494-11.866 26.494-26.504C315.695 298.452 310.617 290.061 303 285.406zM289.201 320.962c-4.568 0-8.582-2.359-10.877-5.938-1.307-2.019-2.061-4.419-2.061-7.001 0-5.385 3.293-9.996 7.979-11.939 1.529-.638 3.207-.989 4.959-.989 7.139 0 12.93 5.79 12.93 12.928C302.131 315.173 296.34 320.962 289.201 320.962zM245.096 114.229c-2.912-9.315-10.059-16.764-19.195-20.078-3.336-1.22-6.947-1.879-10.709-1.879-1.57 0-3.121.118-4.641.34-15.115 2.241-26.695 15.265-26.695 30.998 0 3.007.424 5.917 1.221 8.668 3.75 13.088 15.807 22.669 30.115 22.669 17.307 0 31.34-14.032 31.34-31.337C246.531 120.348 246.031 117.193 245.096 114.229zM215.182 137.78c-7.818 0-14.162-6.342-14.162-14.171 0-7.83 6.344-14.171 14.162-14.171 7.828 0 14.172 6.342 14.172 14.171C229.354 131.438 223.01 137.78 215.182 137.78z"/><path fill="#2A94F4" d="M183.281 295.86h-68.178v-14.438h56.375v2.635c0 1.796.393 3.495 1.117 5.014C174.475 293.088 178.543 295.86 183.281 295.86zM286.758 334.411H118.799c-1.221 0-2.475.043-3.695.116V295.86h150.559c-1.902 3.643-2.963 7.775-2.963 12.163C262.699 321.832 273.268 333.179 286.758 334.411z"/><path fill="#0B4870" d="M131.355,176.533l-3.707,5.789l-3.697,5.779l-2.316,3.623c-3.504,5.502-10.824,7.075-16.283,3.581
				l-7.012-4.484c-5.502-3.505-7.076-10.824-3.58-16.295l2.326-3.611l3.697-5.79l3.697-5.78L131.355,176.533z"/></svg>