<svg xmlns="http://www.w3.org/2000/svg" width="400" height="400" enable-background="new 0 0 400 400" viewBox="0 0 400 400"><path fill="#FCD2B1" d="M48.049,140.595l16.415,0c-0.928,11.799,0.668,23.764,4.767,35.001H48.049
					c-9.673,0-17.508-7.835-17.508-17.507C30.54,148.43,38.376,140.595,48.049,140.595z"/><path fill="#F1E34E" d="M64.464,140.596l19.088,0.001c8.154-0.001,15.018,5.572,16.962,13.119c0,0.03,0.016,0.061,0.015,0.076
					c0.212,0.85,0.364,1.716,0.455,2.596c0.046,0.563,0.077,1.123,0.077,1.701c0,9.673-7.836,17.508-17.508,17.508H69.231
					C65.132,164.36,63.537,152.395,64.464,140.596z"/><path fill="#FCD2B1" d="M88.608,63.85l2.444,2.445l11.131,11.13c-4.844,3.127-9.43,6.818-13.682,11.07
					c-4.252,4.251-7.941,8.854-11.055,13.697L66.302,91.045l-2.445-2.444c-6.849-6.833-6.849-17.918,0.001-24.751
					C70.69,57.017,81.776,57.017,88.608,63.85z"/><polygon fill="#F1E34E" points="66.302 91.045 77.447 102.192 77.433 102.193"/><path fill="#F1E34E" d="M102.184 77.425l11.526 11.525c6.849 6.834 6.849 17.92 0 24.752l0 .015c-6.833 6.833-17.917 6.833-24.751 0v-.015l-11.51-11.51c3.114-4.843 6.803-9.445 11.055-13.697C92.754 84.243 97.34 80.552 102.184 77.425zM175.604 69.209l0 14.336c0 9.673-7.836 17.507-17.509 17.508-.578-.001-1.139-.03-1.702-.077-.896-.09-1.762-.243-2.596-.455-.015 0-.046-.015-.076-.015-7.563-1.944-13.137-8.808-13.136-16.963l-.001-19.087C152.386 63.53 164.352 65.11 175.604 69.209z"/><path fill="#FCD2B1" d="M259.41,335.542v16.416c0,9.657-7.836,17.508-17.506,17.508c-9.66,0-17.496-7.852-17.496-17.509
					l0.001-21.167C235.646,334.889,247.613,336.469,259.41,335.542z"/><path fill="#F1E34E" d="M241.903 298.946c.606 0 1.198.03 1.792.092.014-.001.029.014.061.014.774.077 1.549.213 2.291.379.016.016.032.017.047.017 7.654 1.882 13.317 8.777 13.316 17.007v19.087c-11.797.927-23.764-.653-35.001-4.751l-.001-14.336C224.409 306.782 232.244 298.946 241.903 298.946zM311.041 286.282l11.524 11.525c-3.112 4.843-6.802 9.445-11.054 13.697-4.254 4.251-8.838 7.943-13.683 11.07l-11.54-11.54c-6.833-6.834-6.834-17.919-.001-24.753C293.122 279.448 304.207 279.449 311.041 286.282z"/><path fill="#FCD2B1" d="M98.919,216.202l24.752,24.752v0.014l-10.901,10.904l-4.011,3.994
					c-6.833,6.833-17.919,6.833-24.753-0.001c-6.832-6.832-6.832-17.918,0-24.752l3.994-3.993L98.919,216.202z"/><path fill="#F1E34E" d="M133.875 206.012c6.834 6.834 6.834 17.92 0 24.753l-10.204 10.19-24.752-24.752 10.204-10.189C115.957 199.179 127.042 199.179 133.875 206.012zM216.209 98.912l24.753 24.751-10.188 10.206c-6.834 6.833-17.92 6.832-24.754-.001-6.833-6.833-6.833-17.918 0-24.751L216.209 98.912z"/><path fill="#FCD2B1" d="M159.038,276.335l24.751,24.752l-10.92,10.902l-3.994,3.994c-6.833,6.848-17.917,6.848-24.751,0
					c-6.833-6.833-6.833-17.919,0-24.752l3.994-3.993L159.038,276.335z"/><path fill="#F1E34E" d="M193.993 266.13c6.834 6.834 6.833 17.918 0 24.752l-10.203 10.206-24.751-24.752 10.203-10.204C176.075 259.281 187.16 259.282 193.993 266.13zM276.343 159.03l24.752 24.752-10.204 10.204c-6.849 6.834-17.919 6.833-24.753-.001-6.849-6.833-6.849-17.918.001-24.751L276.343 159.03zM316.447 224.403l14.348-.001c4.102 11.253 5.682 23.218 4.754 35.001h-19.102c-8.215.001-15.125-5.678-16.994-13.317-.182-.774-.332-1.579-.408-2.384-.062-.592-.092-1.184-.092-1.791C298.953 232.237 306.788 224.403 316.447 224.403z"/><path fill="#EFBE3B" d="M102.184,77.425l11.526,11.525c6.849,6.834,6.849,17.92,0,24.752c-6.833,6.848-17.918,6.849-24.752,0
				l-11.51-11.51c3.114-4.843,6.803-9.445,11.055-13.697C92.754,84.243,97.34,80.552,102.184,77.425z"/><path fill="#FCD2B1" d="M158.096,30.534c9.673,0,17.508,7.834,17.509,17.508l0,21.167c-11.252-4.099-23.218-5.679-35.019-4.752
				l0.001-16.416C140.588,38.369,148.423,30.534,158.096,30.534z"/><path fill="#EFBE3B" d="M175.604,69.209l0,14.336c0,9.673-7.836,17.507-17.509,17.508c-0.578-0.001-1.139-0.03-1.702-0.077
				c-0.896-0.09-1.762-0.243-2.596-0.455c-0.015,0-0.046-0.015-0.076-0.015c-7.563-1.944-13.137-8.808-13.136-16.963l-0.001-19.087
				C152.386,63.53,164.352,65.11,175.604,69.209z"/><path fill="#FCD2B1" d="M255.872,84c6.834,6.848,6.834,17.919,0.001,24.753l-3.994,4.009l-10.902,10.901h-0.015l-24.753-24.751
				l10.918-10.918l3.993-3.993C237.954,77.167,249.04,77.167,255.872,84z"/><path fill="#EFBE3B" d="M216.209,98.912l24.753,24.751h0.015l-10.203,10.206c-6.834,6.833-17.92,6.832-24.754-0.001
				c-6.833-6.833-6.833-17.918,0-24.751L216.209,98.912z"/><path fill="#FCD2B1" d="M315.99,144.118c6.832,6.833,6.833,17.918,0,24.752l-3.994,3.993l-10.901,10.92l-24.752-24.752
				l10.901-10.919l3.994-3.994C298.071,137.285,309.156,137.286,315.99,144.118z"/><path fill="#EFBE3B" d="M276.343,159.03l24.752,24.752l-10.204,10.204c-6.849,6.834-17.919,6.833-24.753-0.001
				c-6.849-6.833-6.849-17.918,0.001-24.751L276.343,159.03z"/><path fill="#FCD2B1" d="M330.795,224.402l21.17,0c9.658,0.001,17.494,7.835,17.494,17.51
				c-0.002,9.657-7.836,17.492-17.494,17.492h-16.416C336.477,247.62,334.896,235.655,330.795,224.402z"/><path fill="#EFBE3B" d="M316.447,224.403l14.348-0.001c4.102,11.253,5.682,23.218,4.754,35.001h-19.102
				c-8.215,0.001-15.125-5.678-16.994-13.317c-0.182-0.774-0.332-1.579-0.408-2.384c-0.062-0.592-0.092-1.184-0.092-1.791
				C298.953,232.237,306.788,224.403,316.447,224.403z"/><path fill="#FCD2B1" d="M322.565,297.807l13.591,13.591c6.834,6.833,6.834,17.917,0,24.751s-17.918,6.833-24.75,0l-2.461-2.46
				l-11.116-11.116c4.845-3.127,9.429-6.818,13.683-11.07C315.764,307.252,319.453,302.65,322.565,297.807z"/><path fill="#EFBE3B" d="M311.041 286.282l11.524 11.525c-3.112 4.843-6.802 9.445-11.054 13.697-4.254 4.251-8.838 7.943-13.683 11.07l-11.54-11.54c-6.833-6.834-6.834-17.919-.001-24.753C293.122 279.448 304.207 279.449 311.041 286.282zM241.903 298.946c.606 0 1.198.03 1.792.092.014-.001.029.014.061.014.774.077 1.549.213 2.291.379.016.016.032.017.047.017 7.654 1.882 13.317 8.777 13.316 17.007v19.087c-11.797.927-23.764-.653-35.001-4.751l-.001-14.336C224.409 306.782 232.244 298.946 241.903 298.946zM193.993 266.13c6.834 6.834 6.833 17.918 0 24.752l-10.203 10.206-24.751-24.752 10.203-10.204C176.075 259.281 187.16 259.282 193.993 266.13zM133.875 206.012c6.834 6.834 6.834 17.92 0 24.753l-10.204 10.204v-.014l-24.752-24.752 10.204-10.189C115.957 199.179 127.042 199.179 133.875 206.012zM64.464 140.596l19.088.001c8.154-.001 15.018 5.572 16.962 13.119 0 .03.016.061.015.076.212.85.364 1.716.455 2.596.046.563.077 1.123.077 1.701 0 9.673-7.836 17.508-17.508 17.508H69.231C65.132 164.36 63.537 152.395 64.464 140.596z"/><path fill="#FFBE55" d="M175.604,69.209c11.025,4.01,21.35,10.448,30.188,19.286l10.416,10.417l24.753,24.751h0.015
				l35.366,35.367l24.752,24.752l10.417,10.416c8.837,8.838,15.26,19.179,19.283,30.203c4.102,11.253,5.682,23.218,4.754,35.001
				c-1.062,13.439-5.391,26.666-12.983,38.404c-3.112,4.843-6.802,9.445-11.054,13.697c-4.254,4.251-8.838,7.943-13.683,11.07
				c-11.738,7.594-24.979,11.905-38.419,12.968c-11.797,0.927-23.764-0.653-35.001-4.751c-11.024-4.009-21.366-10.449-30.203-19.286
				l-10.417-10.417l-24.751-24.752l-35.367-35.367v-0.014l-35.169-35.169c-8.838-8.838-15.26-19.178-19.271-30.188
				c-4.099-11.237-5.694-23.203-4.767-35.001c1.063-13.439,5.375-26.666,12.969-38.403l0.014-0.001
				c3.114-4.843,6.803-9.445,11.055-13.697c4.252-4.252,8.838-7.943,13.682-11.07c11.738-7.592,24.965-11.904,38.402-12.968
				C152.386,63.53,164.352,65.11,175.604,69.209z"/><path fill="#FFE3CA" d="M286.162,219.548c18.365,18.364,18.365,48.246,0,66.615c-18.363,18.364-48.244,18.364-66.613-0.001
				L113.837,180.446c-18.364-18.365-18.364-48.245,0.001-66.614c18.363-18.366,48.248-18.365,66.612,0L286.162,219.548z"/><g><circle cx="264.161" cy="238.791" r="7.707" fill="#FFBE55"/><circle cx="210.203" cy="246.5" r="7.708" fill="#FFBE55"/><circle cx="210.203" cy="184.833" r="7.708" fill="#FFBE55"/></g></svg>